<svg width="430" height="350" viewBox="165 115 430 350" xmlns="http://www.w3.org/2000/svg" aria-label="Stacked brand icon">
  <g fill="#2563eb" stroke="white" stroke-width="18" stroke-linejoin="round">
    <path d="M275 124.5H579C592.531 124.5 603.5 135.469 603.5 149V373C603.5 386.531 592.531 397.5 579 397.5H275C261.469 397.5 250.5 386.531 250.5 373V149C250.5 135.469 261.469 124.5 275 124.5Z"/>
    <path d="M235 164.5H539C552.531 164.5 563.5 175.469 563.5 189V413C563.5 426.531 552.531 437.5 539 437.5H235C221.469 437.5 210.5 426.531 210.5 413V189C210.5 175.469 221.469 164.5 235 164.5Z"/>
    <path d="M195 204.5H499C512.531 204.5 523.5 215.469 523.5 229V453C523.5 466.531 512.531 477.5 499 477.5H195C181.469 477.5 170.5 466.531 170.5 453V229C170.5 215.469 181.469 204.5 195 204.5Z"/>
  </g>
</svg>
